<svg width="13" height="13" viewBox="0 0 13 13" fill="none" xmlns="http://www.w3.org/2000/svg">
<path d="M12.4613 4.50575C12.3936 4.29452 12.2677 4.10667 12.0981 3.96373C11.9284 3.8208 11.722 3.72856 11.5023 3.69762L8.61557 3.27846L7.32467 0.662437C7.22668 0.463616 7.07499 0.296193 6.88677 0.17912C6.69856 0.0620478 6.48133 0 6.25967 0C6.03801 0 5.82078 0.0620478 5.63256 0.17912C5.44434 0.296193 5.29265 0.463616 5.19466 0.662437L3.90377 3.27846L1.01701 3.69762C0.797677 3.72941 0.591623 3.82195 0.422158 3.96478C0.252692 4.10761 0.126576 4.29502 0.0580978 4.5058C-0.0103808 4.71658 -0.0184964 4.94232 0.0346675 5.15748C0.0878314 5.37263 0.200164 5.56861 0.358934 5.72324L2.44816 7.76192L1.95888 10.6373C1.92136 10.8557 1.94572 11.0802 2.02919 11.2855C2.11267 11.4908 2.25194 11.6686 2.43123 11.7989C2.61052 11.9291 2.82269 12.0066 3.04373 12.0225C3.26477 12.0385 3.48585 11.9922 3.68197 11.889L6.26375 10.5313L8.84553 11.889C9.04164 11.9922 9.26272 12.0385 9.48376 12.0225C9.70479 12.0066 9.91697 11.9291 10.0963 11.7989C10.2756 11.6686 10.4148 11.4908 10.4983 11.2855C10.5818 11.0802 10.6061 10.8557 10.5686 10.6373L10.0793 7.76192L12.1686 5.72324C12.3266 5.56816 12.4379 5.37178 12.4896 5.1565C12.5414 4.94122 12.5316 4.71572 12.4613 4.50575V4.50575Z" fill="#FFBD09"/>
<path d="M10.0944 11.7961C10.2743 11.6665 10.4139 11.4888 10.4975 11.2834C10.581 11.078 10.6049 10.8533 10.5666 10.6349L10.0773 7.75955L12.1665 5.72088C12.3253 5.56625 12.4376 5.37027 12.4908 5.15511C12.5439 4.93996 12.5358 4.71422 12.4674 4.50344C12.3989 4.29265 12.2728 4.10524 12.1033 3.96242C11.9338 3.81959 11.7278 3.72704 11.5085 3.69525H11.4823L8.18053 6.91146C8.09797 6.99198 8.0362 7.09134 8.00055 7.201C7.96489 7.31066 7.95642 7.42734 7.97584 7.54101L8.57358 11.0255L8.7171 11.8181L8.84837 11.8875C9.04429 11.9914 9.26551 12.0381 9.48673 12.0223C9.70794 12.0064 9.92025 11.9286 10.0993 11.7978L10.0944 11.7961Z" fill="#FF7104"/>
</svg>
